<svg xmlns="http://www.w3.org/2000/svg" width="634.682" height="175.001" viewBox="0 0 634.682 175.001">
  <g id="rs-logo" transform="translate(-2331.001 -10517)">
    <g id="rs-icon" transform="translate(2293.551 10177.91)">
      <path id="tr" d="M145.451,385.153l108-46.063V375.9l-108,46.063Z" transform="translate(0 0)" fill="#15324e"/>
      <path id="tl" d="M145.45,385.153l-108-46.063V375.9l108,46.063Z" transform="translate(0 0)" fill="#ebcc5f"/>
      <path id="cr" d="M253.451,431.287l-108-46.063v36.81l108,46.063Z" transform="translate(0 -0.071)" fill="#3aae74"/>
      <path id="cl" d="M37.45,431.287l108-46.063v36.81L37.45,468.1Z" transform="translate(0 -0.071)" fill="#8bcb83"/>
      <path id="br" d="M145.451,477.421l108-46.063v36.81l-108,46.063Z" transform="translate(0 -0.141)" fill="#15324e"/>
      <path id="bl" d="M145.45,477.421l-108-46.063v36.81l108,46.063Z" transform="translate(0 -0.141)" fill="#3aae74"/>
    </g>
    <g id="rs-wordmark" transform="translate(2597 10517.397)">
      <g id="research" transform="translate(4.245 0)">
        <path id="h" d="M967.775,2397.437a17.487,17.487,0,0,0-11.658,4.367l-.015-22.77h-9.235l.016,63h9.235v-26.659c0-5.868,3.951-9.66,10.063-9.66,6.039,0,9.643,3.611,9.643,9.66v26.659h9.236v-28.1C985.061,2403.913,978.275,2397.437,967.775,2397.437Z" transform="translate(-620.623 -2379.034)" fill="#15324e"/>
        <path id="c" d="M916.626,2405.717c5.976,0,10.044,3.408,11.163,9.35l.092.5,8.871-1.71-.08-.478c-1.621-9.683-9.491-15.939-20.047-15.939-12.6,0-21.4,9.417-21.4,22.9s8.8,22.9,21.4,22.9h0c10.554,0,18.422-6.257,20.043-15.937l.08-.48-8.871-1.711-.092.5c-1.137,6.032-5.1,9.353-11.163,9.353-7.389,0-12.162-5.738-12.162-14.62S909.237,2405.717,916.626,2405.717Z" transform="translate(-621.322 -2379.034)" fill="#15324e"/>
        <path id="r" d="M876.735,2416.9c0-6.972,2.292-10.219,7.2-10.219a16.253,16.253,0,0,1,4.474.7l.536.163,1.8-8.843-.46-.121a19.9,19.9,0,0,0-5.069-.656h-.011c-3.772,0-6.969,1.256-8.974,3.484v-2.764H867.5v43.4h9.234Z" transform="translate(-621.698 -2379.034)" fill="#15324e"/>
        <path id="a" d="M847.013,2438.672v3.364h8.564v-29.619c0-9.24-6.591-14.98-17.2-14.98-9.86,0-17.235,5.531-18.787,14.091l-.087.481,8.949,1.8.1-.491c1.05-5.084,4.63-8,9.822-8,4.707,0,7.63,1.986,7.63,5.181,0,2.418-1.574,4.022-10.176,6.072-11.573,2.616-16.081,6.521-16.081,13.928a11.7,11.7,0,0,0,4.141,9.29c2.688,2.257,6.479,3.449,10.96,3.449C840.01,2443.236,844.365,2441.587,847.013,2438.672Zm-18.2-8.655c0-2.921,2.532-4.611,9.352-6.237,4.434-1.14,6.951-2.213,8.257-3.588v7.025a7,7,0,0,1-2.915,5.705,12.635,12.635,0,0,1-7.649,2.274C832.644,2435.2,828.813,2434.3,828.813,2430.017Z" transform="translate(-622.347 -2379.034)" fill="#15324e"/>
        <path id="e" d="M810.3,2432.339l.228-.408-7.2-4.608-.276.424c-3.612,5.559-6.816,7.529-12.242,7.529-6.551,0-11.342-4.957-11.8-12.12h32.442v-3.779c0-13.123-8.3-21.94-20.642-21.94-12.449,0-21.143,9.417-21.143,22.9,0,13.7,8.532,22.9,21.228,22.9C799.6,2443.236,806.305,2439.468,810.3,2432.339Zm-31.124-16.183a11.658,11.658,0,0,1,11.631-10.76h0c6.471,0,10.92,4.205,11.456,10.76Z" transform="translate(-623.022 -2379.034)" fill="#15324e"/>
        <path id="s" d="M744.121,2443.236c10.551,0,17.368-5.094,17.368-12.979,0-8.181-6.56-11.667-17.152-14.643-7.363-1.96-9.608-3.249-9.608-5.517,0-2.856,2.929-4.7,7.462-4.7,4.879,0,8.074,2.411,9.5,7.163l.138.461,8.676-2.159-.115-.479c-1.89-7.864-9.033-12.945-18.2-12.945-9.529,0-16.446,5.391-16.446,12.82,0,7.306,5.734,10.285,15.635,12.96,8.566,2.442,11.043,4.093,11.043,7.359,0,2.9-3.182,4.7-8.3,4.7-7.122,0-10.439-2.713-11.836-9.676l-.1-.5-8.676,1.8.057.456C724.844,2437.449,732.336,2443.236,744.121,2443.236Z" transform="translate(-623.646 -2379.034)" fill="#15324e"/>
        <path id="e-2" data-name="e" d="M695.708,2443.236c8.7,0,15.411-3.768,19.4-10.9l.229-.408-7.2-4.608-.275.424c-3.61,5.559-6.814,7.529-12.242,7.529-6.551,0-11.344-4.957-11.8-12.12h32.442v-3.779c0-13.123-8.3-21.94-20.641-21.94-12.449,0-21.144,9.417-21.144,22.9C674.479,2434.034,683.01,2443.236,695.708,2443.236Zm-11.721-27.08a11.659,11.659,0,0,1,11.632-10.76h0c6.47,0,10.918,4.205,11.456,10.76Z" transform="translate(-624.31 -2379.034)" fill="#15324e"/>
        <path id="r-2" data-name="r" d="M667.858,2396.576c0-10.819-7.75-17.54-20.222-17.54H624.98v63h9.656V2416.2h9.5l13.094,25.84H668.1l-13.8-26.626C662.927,2413.351,667.858,2405.245,667.858,2396.576Zm-9.659,0c0,5.986-3.837,11.021-11.406,11.021H634.639v-19.88h12.153C654.467,2387.717,658.2,2390.614,658.2,2396.576Z" transform="translate(-624.98 -2379.034)" fill="#15324e"/>
      </g>
      <g id="square" transform="translate(0 83.803)">
        <path id="e-3" data-name="e" d="M873.335,2480.437c-12.449,0-21.145,9.417-21.145,22.9,0,13.7,8.533,22.9,21.231,22.9,8.7,0,15.411-3.768,19.4-10.9l.229-.408-7.2-4.608-.275.424c-3.613,5.559-6.817,7.529-12.242,7.529-6.552,0-11.344-4.957-11.8-12.12h32.442v-3.779C893.976,2489.254,885.68,2480.437,873.335,2480.437Zm0,7.959c6.47,0,10.918,4.205,11.456,10.76H861.7a11.658,11.658,0,0,1,11.632-10.76Z" transform="translate(-617.66 -2462.837)" fill="#15324e"/>
        <path id="r-3" data-name="r" d="M842.179,2480.917h-.011c-3.772,0-6.969,1.256-8.974,3.484v-2.764h-8.731v43.4H833.7V2499.9c0-6.972,2.292-10.219,7.2-10.219a16.24,16.24,0,0,1,4.473.7l.536.163,1.8-8.843-.459-.121A19.91,19.91,0,0,0,842.179,2480.917Z" transform="translate(-618.035 -2462.837)" fill="#15324e"/>
        <path id="a-2" data-name="a" d="M795.335,2480.437c-9.86,0-17.234,5.531-18.787,14.091l-.087.481,8.95,1.8.1-.491c1.05-5.084,4.63-8,9.822-8,4.707,0,7.63,1.985,7.63,5.18,0,2.419-1.574,4.023-10.176,6.073-11.573,2.616-16.081,6.521-16.081,13.927a11.709,11.709,0,0,0,4.141,9.291c2.688,2.257,6.479,3.449,10.96,3.449,5.159,0,9.514-1.649,12.161-4.564v3.364h8.565v-29.619C812.537,2486.177,805.946,2480.437,795.335,2480.437Zm8.046,22.756v7.024a7,7,0,0,1-2.915,5.705,12.635,12.635,0,0,1-7.649,2.274c-3.214,0-7.045-.9-7.045-5.179,0-2.921,2.532-4.611,9.352-6.237C799.559,2505.64,802.075,2504.567,803.381,2503.193Z" transform="translate(-618.685 -2462.837)" fill="#15324e"/>
        <path id="u" d="M756.642,2508.3c0,5.868-3.786,9.66-9.644,9.66-6.465,0-9.478-3.069-9.478-9.66v-26.66h-9.234v28.1c0,5.115,1.479,9.319,4.282,12.16s6.95,4.34,11.992,4.34c4.875,0,9.533-1.693,12.414-4.466v3.266h8.9v-43.4h-9.232Z" transform="translate(-619.337 -2462.837)" fill="#15324e"/>
        <path id="q" d="M707.778,2485.036a17.894,17.894,0,0,0-12.331-4.6c-12.055,0-20.473,9.417-20.473,22.9s8.385,22.9,20.391,22.9a18.048,18.048,0,0,0,12.245-4.462v24.262h9.234v-64.4h-9.067Zm-.169,14.54v7.442a10.782,10.782,0,0,1-3.234,7.73,11.131,11.131,0,0,1-7.91,3.21h-.092c-7.5,0-12.162-5.6-12.162-14.62s4.563-14.62,11.909-14.62C702.561,2488.717,707.609,2493.486,707.609,2499.576Z" transform="translate(-620.059 -2462.837)" fill="#15324e"/>
        <path id="s-2" data-name="s" d="M645.912,2488.939c-8.328-2.536-12.73-6.161-12.73-10.482,0-4.265,3.95-7.02,10.062-7.02,6.636,0,10.9,3.4,12.686,10.107l.123.461,9.345-1.961-.089-.479c-1.9-10.162-10.556-16.728-22.064-16.728-11.559,0-19.633,6.423-19.633,15.62,0,8.722,6.083,14.694,19.148,18.8,10.413,3.213,14.661,6.679,14.661,11.963,0,4.879-4.868,8.42-11.574,8.42-9.514,0-14.3-4.085-15.521-13.245l-.07-.526-9.464,1.787.055.462c1.541,12.976,10.359,20.121,24.833,20.121,12.349,0,21.313-7.225,21.313-17.179C666.992,2499.652,660.69,2493.636,645.912,2488.939Z" transform="translate(-620.792 -2462.837)" fill="#15324e"/>
      </g>
    </g>
  </g>
</svg>
